<svg width="32" height="32" viewBox="0 0 32 32" fill="none" xmlns="http://www.w3.org/2000/svg">
<path d="M29.9207 26.1041C29.1628 24.3088 28.0629 22.678 26.6823 21.3027C25.3059 19.9234 23.6755 18.8237 21.881 18.0643C21.8649 18.0563 21.8488 18.0523 21.8328 18.0442C24.3359 16.2362 25.9631 13.2911 25.9631 9.96835C25.9631 4.46388 21.5033 0.00405884 15.9988 0.00405884C10.4944 0.00405884 6.03456 4.46388 6.03456 9.96835C6.03456 13.2911 7.66179 16.2362 10.1649 18.0483C10.1488 18.0563 10.1328 18.0603 10.1167 18.0683C8.3167 18.8277 6.70152 19.9166 5.31536 21.3067C3.93607 22.6831 2.83636 24.3136 2.07697 26.1081C1.33094 27.8649 0.928594 29.7484 0.891702 31.6567C0.89063 31.6996 0.898151 31.7423 0.913824 31.7822C0.929496 31.8221 0.953002 31.8585 0.982957 31.8892C1.01291 31.9199 1.04871 31.9443 1.08824 31.961C1.12777 31.9776 1.17024 31.9862 1.21313 31.9862H3.62384C3.80063 31.9862 3.94126 31.8456 3.94527 31.6728C4.02563 28.571 5.27117 25.6661 7.47295 23.4643C9.75108 21.1862 12.7765 19.9326 15.9988 19.9326C19.2212 19.9326 22.2466 21.1862 24.5247 23.4643C26.7265 25.6661 27.9721 28.571 28.0524 31.6728C28.0564 31.8496 28.1971 31.9862 28.3738 31.9862H30.7846C30.8275 31.9862 30.8699 31.9776 30.9095 31.961C30.949 31.9443 30.9848 31.9199 31.0147 31.8892C31.0447 31.8585 31.0682 31.8221 31.0839 31.7822C31.0995 31.7423 31.1071 31.6996 31.106 31.6567C31.0658 29.7362 30.668 27.8679 29.9207 26.1041ZM15.9988 16.8791C14.1546 16.8791 12.4189 16.1599 11.1131 14.8541C9.80733 13.5483 9.08813 11.8125 9.08813 9.96835C9.08813 8.12415 9.80733 6.38843 11.1131 5.08263C12.4189 3.77683 14.1546 3.05763 15.9988 3.05763C17.843 3.05763 19.5788 3.77683 20.8846 5.08263C22.1904 6.38843 22.9096 8.12415 22.9096 9.96835C22.9096 11.8125 22.1904 13.5483 20.8846 14.8541C19.5788 16.1599 17.843 16.8791 15.9988 16.8791Z" fill="url(#paint0_linear_70_171)"/>
<defs>
<linearGradient id="paint0_linear_70_171" x1="15.9988" y1="0.00405884" x2="15.9988" y2="31.9862" gradientUnits="userSpaceOnUse">
<stop stop-color="#FFE8A3"/>
<stop offset="1" stop-color="#E6A000"/>
</linearGradient>
</defs>
</svg>
