<svg width="60" height="64" viewBox="0 0 60 64" fill="none" xmlns="http://www.w3.org/2000/svg">
    <path d="M57.0682 51.6468C55.5944 48.1559 53.4558 44.9851 50.7713 42.3108C48.095 39.6289 44.9247 37.4906 41.4354 36.014C41.4041 35.9983 41.3729 35.9905 41.3416 35.9749C46.2088 32.4593 49.3729 26.7327 49.3729 20.2718C49.3729 9.56864 40.701 0.896759 29.9979 0.896759C19.2948 0.896759 10.6229 9.56864 10.6229 20.2718C10.6229 26.7327 13.7869 32.4593 18.6541 35.9827C18.6229 35.9983 18.5916 36.0061 18.5604 36.0218C15.0604 37.4983 11.9198 39.6155 9.22444 42.3186C6.54248 44.9949 4.40416 48.1653 2.92756 51.6546C1.47696 55.0706 0.69461 58.7331 0.622876 62.4436C0.620791 62.527 0.635416 62.61 0.66589 62.6876C0.696365 62.7653 0.742071 62.836 0.800317 62.8957C0.858562 62.9554 0.928168 63.0029 1.00503 63.0352C1.0819 63.0676 1.16447 63.0843 1.24788 63.0843H5.93538C6.27913 63.0843 6.55256 62.8108 6.56038 62.4749C6.71663 56.4436 9.1385 50.7952 13.4198 46.514C17.8494 42.0843 23.7323 39.6468 29.9979 39.6468C36.2635 39.6468 42.1463 42.0843 46.576 46.514C50.8573 50.7952 53.2791 56.4436 53.4354 62.4749C53.4432 62.8186 53.7166 63.0843 54.0604 63.0843H58.7479C58.8313 63.0843 58.9139 63.0676 58.9907 63.0352C59.0676 63.0029 59.1372 62.9554 59.1954 62.8957C59.2537 62.836 59.2994 62.7653 59.3299 62.6876C59.3603 62.61 59.375 62.527 59.3729 62.4436C59.2948 58.7093 58.5213 55.0765 57.0682 51.6468ZM29.9979 33.7093C26.4119 33.7093 23.0369 32.3108 20.4979 29.7718C17.9588 27.2327 16.5604 23.8577 16.5604 20.2718C16.5604 16.6858 17.9588 13.3108 20.4979 10.7718C23.0369 8.2327 26.4119 6.83426 29.9979 6.83426C33.5838 6.83426 36.9588 8.2327 39.4979 10.7718C42.0369 13.3108 43.4354 16.6858 43.4354 20.2718C43.4354 23.8577 42.0369 27.2327 39.4979 29.7718C36.9588 32.3108 33.5838 33.7093 29.9979 33.7093Z" fill="white" />
</svg>
