<svg width="19" height="20" viewBox="0 0 19 20" fill="none" xmlns="http://www.w3.org/2000/svg">
<path d="M10.0278 4.34192H8.9344C8.83438 4.34192 8.75254 4.42376 8.75254 4.52378V10.7821C8.75254 10.8412 8.77982 10.8957 8.82756 10.9298L12.5852 13.6736C12.6671 13.7327 12.7807 13.7168 12.8399 13.635L13.49 12.7484C13.5514 12.6643 13.5332 12.5506 13.4514 12.4938L10.2097 10.1501V4.52378C10.2097 4.42376 10.1279 4.34192 10.0278 4.34192ZM15.0245 6.05141L18.5889 6.92207C18.7026 6.94934 18.814 6.86296 18.814 6.74702L18.8322 3.07572C18.8322 2.92341 18.6571 2.83703 18.5389 2.9325L14.9563 5.73088C14.9292 5.75183 14.9086 5.77999 14.8968 5.81213C14.885 5.84427 14.8825 5.87909 14.8896 5.91257C14.8968 5.94605 14.9132 5.97685 14.9371 6.00141C14.9609 6.02597 14.9912 6.0433 15.0245 6.05141ZM18.8367 12.8962L17.5478 12.4529C17.5028 12.4375 17.4536 12.4403 17.4107 12.4607C17.3678 12.4811 17.3346 12.5174 17.3182 12.562C17.275 12.6779 17.2295 12.7916 17.1818 12.9053C16.7771 13.8623 16.1975 14.7239 15.4564 15.4627C14.7235 16.1978 13.855 16.7838 12.899 17.1881C11.9086 17.6068 10.844 17.8217 9.76868 17.8201C8.68207 17.8201 7.62955 17.6086 6.63841 17.1881C5.68237 16.7838 4.81385 16.1978 4.081 15.4627C3.34219 14.7239 2.76251 13.8623 2.3556 12.9053C1.93918 11.9143 1.72582 10.8499 1.72818 9.775C1.72818 8.68839 1.93959 7.63359 2.36014 6.64246C2.76478 5.68541 3.34446 4.82385 4.08555 4.08504C4.8184 3.34992 5.68692 2.76396 6.64296 2.35964C7.62955 1.93909 8.68434 1.72768 9.77096 1.72768C10.8576 1.72768 11.9101 1.93909 12.9012 2.35964C13.8573 2.76396 14.7258 3.34992 15.4586 4.08504C15.6905 4.31919 15.9087 4.56243 16.1088 4.8193L17.4682 3.75542C15.6791 1.46853 12.8944 -0.00227062 9.76641 2.63138e-06C4.31969 0.00227589 -0.0540532 4.42603 0.000504918 9.87502C0.0550631 15.2285 4.40835 19.55 9.77096 19.55C13.9878 19.55 17.5796 16.8767 18.9481 13.1326C18.9822 13.0371 18.9322 12.9303 18.8367 12.8962Z" fill="url(#paint0_linear_82_428)"/>
<defs>
<linearGradient id="paint0_linear_82_428" x1="9.4794" y1="0" x2="9.4794" y2="19.55" gradientUnits="userSpaceOnUse">
<stop stop-color="#FE5858"/>
<stop offset="1" stop-color="#A04975"/>
</linearGradient>
</defs>
</svg>
