<svg width="797" height="400" viewBox="0 0 797 400" fill="none" xmlns="http://www.w3.org/2000/svg">
<path d="M188.878 146.367C187.728 185.177 155.817 216.513 116.432 216.513C77.0471 216.513 45.1365 185.177 43.9866 146.367H1.72668C1.72668 151.254 2.30165 156.141 3.1641 160.741V161.603C5.17647 173.39 9.20123 184.602 14.6634 194.664L20.988 205.301L55.7734 265.96L116.72 371.466L177.378 265.96L212.451 205.301L219.063 193.801L219.638 192.652C225.101 182.877 228.55 172.24 230.563 161.028C231.425 156.141 232 151.254 232 146.367H188.59H188.878Z" fill="#BCBCBC"/>
<path d="M231.425 144.642H231.712V143.78C231.712 143.78 231.712 144.067 231.425 144.642Z" fill="#4F9F62"/>
<path d="M57.784 33.6737C23.2861 54.6599 0.287482 93.7575 0 138.605H43.4099C43.6973 110.432 57.784 86.283 79.3452 73.0588L57.4965 33.3862L57.784 33.6737Z" fill="url(#paint0_linear_153_630)"/>
<path d="M167.889 29.6492L145.753 69.6093C136.841 65.2971 126.779 62.9972 115.855 62.9972C104.93 62.9972 95.1559 65.2971 85.669 69.6093L64.1078 29.9367C79.6318 21.5997 97.4558 17 115.855 17C134.254 17 152.365 21.5997 167.889 29.6492Z" fill="url(#paint1_linear_153_630)"/>
<path d="M174.215 33.3862L152.079 73.0588C173.641 86.283 188.015 110.432 188.302 138.892H231.999C231.712 93.7576 208.713 54.6599 173.928 33.6737L174.215 33.3862Z" fill="url(#paint2_linear_153_630)"/>
<path d="M195.487 79.671L159.84 112.732L124.192 145.792C120.742 148.954 115.28 148.379 112.692 144.93C109.818 141.48 110.68 136.018 114.417 133.43L154.952 106.407L195.487 79.3835V79.671Z" fill="#BCBCBC"/>
<path d="M276.863 197C273.129 197 270.263 195.4 268.263 192.2C266.263 189 266.063 185.6 267.663 182L323.863 47.8C325.863 43.1333 329.129 40.8 333.663 40.8C338.463 40.8 341.729 43.1333 343.463 47.8L399.863 182.4C401.329 186.133 401.063 189.533 399.063 192.6C397.196 195.533 394.329 197 390.463 197C388.463 197 386.529 196.467 384.663 195.4C382.929 194.2 381.663 192.6 380.863 190.6L331.263 67.4H336.863L286.463 190.6C285.529 192.733 284.129 194.333 282.263 195.4C280.529 196.467 278.729 197 276.863 197ZM287.463 162.6L295.463 145.4H373.863L381.863 162.6H287.463ZM417.888 197C414.154 197 411.288 195.4 409.288 192.2C407.288 189 407.088 185.6 408.688 182L464.888 47.8C466.888 43.1333 470.154 40.8 474.688 40.8C479.488 40.8 482.754 43.1333 484.488 47.8L540.888 182.4C542.354 186.133 542.154 189.533 540.288 192.6C538.554 195.533 535.754 197 531.888 197C529.888 197 527.954 196.467 526.088 195.4C524.354 194.2 523.088 192.6 522.288 190.6L472.288 67.4H478.688L427.488 190.6C426.554 192.733 425.154 194.333 423.288 195.4C421.554 196.467 419.754 197 417.888 197ZM576.275 197C573.342 197 570.875 196 568.875 194C566.875 192 565.875 189.533 565.875 186.6V51.2C565.875 48.1333 566.875 45.6667 568.875 43.8C570.875 41.8 573.342 40.8 576.275 40.8H666.675C669.742 40.8 672.208 41.7333 674.075 43.6C675.942 45.3333 676.875 47.6667 676.875 50.6C676.875 53.4 675.942 55.6667 674.075 57.4C672.208 59.1333 669.742 60 666.675 60H586.675V108.6H644.075C647.142 108.6 649.608 109.533 651.475 111.4C653.342 113.133 654.275 115.4 654.275 118.2C654.275 121 653.342 123.333 651.475 125.2C649.608 126.933 647.142 127.8 644.075 127.8H586.675V177.8H666.675C669.742 177.8 672.208 178.667 674.075 180.4C675.942 182.133 676.875 184.4 676.875 187.2C676.875 190.133 675.942 192.533 674.075 194.4C672.208 196.133 669.742 197 666.675 197H576.275ZM601.675 24C598.342 24 595.475 22.8667 593.075 20.6C590.675 18.2 589.475 15.3333 589.475 12C589.475 8.79999 590.675 5.99999 593.075 3.59999C595.475 1.19999 598.342 -1.4782e-05 601.675 -1.4782e-05C604.875 -1.4782e-05 607.675 1.19999 610.075 3.59999C612.475 5.99999 613.675 8.79999 613.675 12C613.675 15.3333 612.475 18.2 610.075 20.6C607.675 22.8667 604.875 24 601.675 24ZM646.075 24C642.742 24 639.875 22.8667 637.475 20.6C635.208 18.2 634.075 15.3333 634.075 12C634.075 8.79999 635.208 5.99999 637.475 3.59999C639.875 1.19999 642.742 -1.4782e-05 646.075 -1.4782e-05C649.275 -1.4782e-05 652.075 1.19999 654.475 3.59999C656.875 5.99999 658.075 8.79999 658.075 12C658.075 15.3333 656.875 18.2 654.475 20.6C652.075 22.8667 649.275 24 646.075 24ZM702.114 231.6C700.514 231.6 699.247 231.067 698.314 230C697.514 228.933 697.114 227.733 697.114 226.4C697.114 223.733 697.847 221.4 699.314 219.4C700.914 217.533 702.447 215.467 703.914 213.2C705.514 210.933 706.314 208.2 706.314 205C706.314 202.733 705.781 200.867 704.714 199.4C703.647 197.933 702.447 196.6 701.114 195.4C699.781 194.067 698.581 192.6 697.514 191C696.447 189.4 695.914 187.4 695.914 185C695.914 181.4 697.114 178.4 699.514 176C701.914 173.6 705.181 172.4 709.314 172.4C714.381 172.4 718.181 174.133 720.714 177.6C723.381 181.067 724.781 185.733 724.914 191.6C724.914 195.867 724.181 200.333 722.714 205C721.381 209.667 719.514 214 717.114 218C714.847 222 712.381 225.267 709.714 227.8C707.047 230.333 704.514 231.6 702.114 231.6ZM302.297 362.05C300.897 363.45 298.997 364.1 296.597 364C294.197 364 292.297 363.2 290.897 361.6L241.697 304.3L287.597 249.4C288.997 247.7 290.797 246.85 292.997 246.85C295.297 246.75 297.147 247.5 298.547 249.1C299.947 250.7 300.597 252.4 300.497 254.2C300.497 255.9 299.797 257.55 298.397 259.15L260.447 303.25L302.297 351.85C303.697 353.45 304.447 355.15 304.547 356.95C304.747 358.65 303.997 360.35 302.297 362.05ZM223.997 364C221.797 364 219.947 363.25 218.447 361.75C216.947 360.25 216.197 358.4 216.197 356.2V254.65C216.197 252.35 216.947 250.5 218.447 249.1C219.947 247.6 221.797 246.85 223.997 246.85C226.297 246.85 228.147 247.6 229.547 249.1C231.047 250.5 231.797 252.35 231.797 254.65V297.7H256.397V311.5H231.797V356.2C231.797 358.4 231.047 360.25 229.547 361.75C228.147 363.25 226.297 364 223.997 364ZM349.679 364.6C342.379 364.6 335.829 362.8 330.029 359.2C324.229 355.5 319.629 350.55 316.229 344.35C312.929 338.05 311.279 330.95 311.279 323.05C311.279 315.15 313.079 308.05 316.679 301.75C320.379 295.45 325.329 290.5 331.529 286.9C337.829 283.2 344.879 281.35 352.679 281.35C360.479 281.35 367.479 283.2 373.679 286.9C379.879 290.5 384.779 295.45 388.379 301.75C392.079 308.05 393.929 315.15 393.929 323.05H388.079C388.079 330.95 386.379 338.05 382.979 344.35C379.679 350.55 375.129 355.5 369.329 359.2C363.529 362.8 356.979 364.6 349.679 364.6ZM352.679 351.1C357.779 351.1 362.329 349.9 366.329 347.5C370.329 345 373.479 341.65 375.779 337.45C378.079 333.15 379.229 328.35 379.229 323.05C379.229 317.65 378.079 312.85 375.779 308.65C373.479 304.35 370.329 301 366.329 298.6C362.329 296.1 357.779 294.85 352.679 294.85C347.679 294.85 343.129 296.1 339.029 298.6C335.029 301 331.829 304.35 329.429 308.65C327.129 312.85 325.979 317.65 325.979 323.05C325.979 328.35 327.129 333.15 329.429 337.45C331.829 341.65 335.029 345 339.029 347.5C343.129 349.9 347.679 351.1 352.679 351.1ZM386.279 364.15C384.079 364.15 382.229 363.45 380.729 362.05C379.329 360.55 378.629 358.7 378.629 356.5V333.55L381.479 317.65L393.929 323.05V356.5C393.929 358.7 393.179 360.55 391.679 362.05C390.279 363.45 388.479 364.15 386.279 364.15ZM447.449 282.1C448.949 282.1 450.299 282.5 451.499 283.3C452.699 284.1 453.649 285.35 454.349 287.05L485.249 354.1C486.149 356.1 486.249 357.9 485.549 359.5C484.849 361 483.649 362.15 481.949 362.95C479.749 363.95 477.849 364.2 476.249 363.7C474.649 363.2 473.299 361.95 472.199 359.95L443.999 295.9H451.649L422.549 359.95C421.649 361.85 420.299 363.1 418.499 363.7C416.799 364.2 414.899 363.95 412.799 362.95C410.899 362.05 409.549 360.85 408.749 359.35C408.049 357.85 408.199 356.1 409.199 354.1L440.249 287.05C441.749 283.75 444.149 282.1 447.449 282.1ZM502.936 400C501.136 400 499.286 399.75 497.386 399.25C495.586 398.75 493.786 398 491.986 397C489.786 395.7 488.336 394.1 487.636 392.2C486.936 390.3 487.236 388.45 488.536 386.65C489.736 384.95 491.186 383.9 492.886 383.5C494.586 383.1 496.386 383.45 498.286 384.55C499.386 385.15 500.386 385.6 501.286 385.9C502.286 386.2 503.286 386.35 504.286 386.35C507.486 386.35 510.536 384.7 513.436 381.4C516.436 378.1 519.386 373.2 522.286 366.7L558.136 285.7C559.036 283.7 560.386 282.35 562.186 281.65C564.086 280.95 565.986 281.05 567.886 281.95C569.586 282.65 570.686 283.95 571.186 285.85C571.686 287.65 571.436 289.6 570.436 291.7L534.286 372.7C530.686 380.8 526.086 387.35 520.486 392.35C514.986 397.45 509.136 400 502.936 400ZM537.136 360.7C535.236 361.5 533.436 361.6 531.736 361C530.136 360.3 528.836 359 527.836 357.1L493.486 291.85C492.486 289.95 492.336 288.15 493.036 286.45C493.836 284.65 495.186 283.35 497.086 282.55C498.986 281.75 500.736 281.7 502.336 282.4C504.036 283 505.386 284.25 506.386 286.15L539.386 350.8C540.386 352.7 540.736 354.65 540.436 356.65C540.136 358.55 539.036 359.9 537.136 360.7ZM612.264 364.6C605.964 364.6 600.314 363.65 595.314 361.75C590.414 359.75 586.514 357 583.614 353.5C580.814 350 579.414 346 579.414 341.5C579.414 337 580.664 333.15 583.164 329.95C585.764 326.75 589.464 324.05 594.264 321.85C599.164 319.65 605.014 317.9 611.814 316.6C618.614 315.2 623.214 313.55 625.614 311.65C628.014 309.65 629.214 307.1 629.214 304C629.214 300.8 627.614 298.45 624.414 296.95C621.214 295.35 617.514 294.55 613.314 294.55C609.814 294.55 606.314 295.1 602.814 296.2C599.414 297.3 596.564 298.9 594.264 301C592.764 302.4 591.114 303.35 589.314 303.85C587.514 304.35 586.064 304.25 584.964 303.55C583.064 302.35 581.864 300.8 581.364 298.9C580.964 297 581.414 295.25 582.714 293.65C585.714 289.95 589.914 287 595.314 284.8C600.814 282.5 606.864 281.35 613.464 281.35C619.064 281.35 624.164 282.25 628.764 284.05C633.364 285.75 637.014 288.3 639.714 291.7C642.514 295.1 643.914 299.3 643.914 304.3C643.914 310.1 641.564 315 636.864 319C632.164 322.9 625.014 325.9 615.414 328C607.514 329.6 602.064 331.5 599.064 333.7C596.064 335.8 594.614 338.35 594.714 341.35C594.814 344.45 596.314 346.85 599.214 348.55C602.114 350.25 606.464 351.1 612.264 351.1C617.464 351.1 621.864 350.6 625.464 349.6C629.164 348.5 632.064 346.85 634.164 344.65C635.564 343.15 637.164 342.15 638.964 341.65C640.764 341.15 642.614 341.7 644.514 343.3C646.214 344.7 647.064 346.3 647.064 348.1C647.064 349.9 646.314 351.6 644.814 353.2C641.514 356.5 636.914 359.25 631.014 361.45C625.114 363.55 618.864 364.6 612.264 364.6ZM700.069 364.6C692.769 364.6 686.219 362.8 680.419 359.2C674.619 355.5 670.019 350.55 666.619 344.35C663.319 338.05 661.669 330.95 661.669 323.05C661.669 315.15 663.469 308.05 667.069 301.75C670.769 295.45 675.719 290.5 681.919 286.9C688.219 283.2 695.269 281.35 703.069 281.35C710.869 281.35 717.869 283.2 724.069 286.9C730.269 290.5 735.169 295.45 738.769 301.75C742.469 308.05 744.319 315.15 744.319 323.05H738.469C738.469 330.95 736.769 338.05 733.369 344.35C730.069 350.55 725.519 355.5 719.719 359.2C713.919 362.8 707.369 364.6 700.069 364.6ZM703.069 351.1C708.169 351.1 712.719 349.9 716.719 347.5C720.719 345 723.869 341.65 726.169 337.45C728.469 333.15 729.619 328.35 729.619 323.05C729.619 317.65 728.469 312.85 726.169 308.65C723.869 304.35 720.719 301 716.719 298.6C712.719 296.1 708.169 294.85 703.069 294.85C698.069 294.85 693.519 296.1 689.419 298.6C685.419 301 682.219 304.35 679.819 308.65C677.519 312.85 676.369 317.65 676.369 323.05C676.369 328.35 677.519 333.15 679.819 337.45C682.219 341.65 685.419 345 689.419 347.5C693.519 349.9 698.069 351.1 703.069 351.1ZM736.669 364.15C734.469 364.15 732.619 363.45 731.119 362.05C729.719 360.55 729.019 358.7 729.019 356.5V333.55L731.869 317.65L744.319 323.05V356.5C744.319 358.7 743.569 360.55 742.069 362.05C740.669 363.45 738.869 364.15 736.669 364.15ZM771.44 336.25C769.24 336.25 767.39 335.5 765.89 334C764.49 332.4 763.79 330.6 763.79 328.6V254.65C763.79 252.45 764.49 250.6 765.89 249.1C767.39 247.6 769.24 246.85 771.44 246.85C773.64 246.85 775.44 247.6 776.84 249.1C778.34 250.6 779.09 252.45 779.09 254.65V328.6C779.09 330.7 778.29 332.5 776.69 334C775.19 335.5 773.44 336.25 771.44 336.25ZM771.44 364C768.64 364 766.19 363 764.09 361C762.09 359 761.09 356.55 761.09 353.65C761.09 350.75 762.09 348.3 764.09 346.3C766.19 344.2 768.64 343.15 771.44 343.15C774.34 343.15 776.79 344.2 778.79 346.3C780.79 348.3 781.79 350.75 781.79 353.65C781.79 356.55 780.74 359 778.64 361C776.64 363 774.24 364 771.44 364Z" fill="white"/>
<defs>
<linearGradient id="paint0_linear_153_630" x1="62.9587" y1="57.8222" x2="18.9738" y2="123.943" gradientUnits="userSpaceOnUse">
<stop stop-color="#517AD7"/>
<stop offset="1" stop-color="#4FA05F"/>
</linearGradient>
<linearGradient id="paint1_linear_153_630" x1="64.1078" y1="43.1609" x2="167.889" y2="43.1609" gradientUnits="userSpaceOnUse">
<stop stop-color="#7044BB"/>
<stop offset="1" stop-color="#EF55CF"/>
</linearGradient>
<linearGradient id="paint2_linear_153_630" x1="174.215" y1="56.3848" x2="212.738" y2="126.531" gradientUnits="userSpaceOnUse">
<stop stop-color="#FB5759"/>
<stop offset="1" stop-color="#A24974"/>
</linearGradient>
</defs>
</svg>
