<svg width="35" height="53" viewBox="0 0 35 53" fill="none" xmlns="http://www.w3.org/2000/svg">
<path d="M28.2411 19.3431C28.0692 25.146 23.2979 29.8313 17.409 29.8313C11.5201 29.8313 6.74879 25.146 6.57685 19.3431H0.258118C0.258118 20.0738 0.344087 20.8045 0.473041 21.4923V21.6212C0.773933 23.3836 1.37572 25.06 2.19242 26.5645L3.13809 28.1549L8.33922 37.2247L17.452 53L26.5217 37.2247L31.7658 28.1549L32.7545 26.4355L32.8404 26.2636C33.6571 24.8021 34.173 23.2117 34.4739 21.5353C34.6028 20.8045 34.6888 20.0738 34.6888 19.3431H28.1981H28.2411Z" fill="#BCBCBC"/>
<path d="M34.6028 19.0852H34.6458V18.9562C34.6458 18.9562 34.6458 18.9992 34.6028 19.0852Z" fill="#4F9F62"/>
<path d="M8.6399 2.4931C3.48175 5.63098 0.0429846 11.4769 0 18.1825H6.49067C6.53366 13.97 8.6399 10.3593 11.8637 8.38199L8.59692 2.45012L8.6399 2.4931Z" fill="url(#paint0_linear_33_359)"/>
<path d="M25.1028 1.89132L21.793 7.86618C20.4605 7.22141 18.956 6.87753 17.3226 6.87753C15.6892 6.87753 14.2277 7.22141 12.8092 7.86618L9.58539 1.93431C11.9066 0.687753 14.5716 0 17.3226 0C20.0736 0 22.7817 0.687753 25.1028 1.89132Z" fill="url(#paint1_linear_33_359)"/>
<path d="M26.0488 2.45012L22.739 8.38199C25.9629 10.3593 28.1121 13.97 28.1551 18.2255H34.6887C34.6457 11.4769 31.207 5.63098 26.0058 2.4931L26.0488 2.45012Z" fill="url(#paint2_linear_33_359)"/>
<path d="M29.2295 9.37065L23.8994 14.3139L18.5693 19.2571C18.0535 19.7299 17.2368 19.644 16.8499 19.1281C16.4201 18.6123 16.549 17.7956 17.1078 17.4088L23.1687 13.3682L29.2295 9.32766V9.37065Z" fill="#BCBCBC"/>
<defs>
<linearGradient id="paint0_linear_33_359" x1="9.41363" y1="6.10381" x2="2.83698" y2="15.9903" gradientUnits="userSpaceOnUse">
<stop stop-color="#517AD7"/>
<stop offset="1" stop-color="#4FA05F"/>
</linearGradient>
<linearGradient id="paint1_linear_33_359" x1="9.58539" y1="3.9116" x2="25.1028" y2="3.9116" gradientUnits="userSpaceOnUse">
<stop stop-color="#7044BB"/>
<stop offset="1" stop-color="#EF55CF"/>
</linearGradient>
<linearGradient id="paint2_linear_33_359" x1="26.0488" y1="5.88888" x2="31.8088" y2="16.3771" gradientUnits="userSpaceOnUse">
<stop stop-color="#FB5759"/>
<stop offset="1" stop-color="#A24974"/>
</linearGradient>
</defs>
</svg>
