<svg width="23" height="34" viewBox="0 0 23 34" fill="none" xmlns="http://www.w3.org/2000/svg">
<g clip-path="url(#clip0_33_284)">
<path d="M19.9333 15.2444C18.5778 21.0222 15.7111 26.4889 11.3778 31.4889C6.8 26.2667 3.75556 20.6 2.26667 14.6667C1.46667 11.4222 1.44445 9.42222 2.22222 7.53333C3.44445 4.6 6.86667 1.46667 11.5111 1.66667C15.0222 1.77778 18.3778 3.93333 19.8667 7.02222C20.4889 8.33333 21.0889 10.4444 19.9333 15.2444Z" fill="url(#paint0_linear_33_284)"/>
<path d="M21.3556 6.28889C19.5778 2.6 15.7333 0.133334 11.5556 2.49362e-07C6.86667 -0.111111 2.44444 2.68889 0.688889 6.88889C0.222222 8.02222 0 9.2 0 10.5556C0 11.9111 0.2 13.3111 0.644444 15.0889C2.26667 21.5556 5.66667 27.6889 10.7778 33.3111L11.4 34L12.0222 33.3111C16.8667 27.8889 20.0667 21.9556 21.5556 15.6444C22.8222 10.3333 22.1111 7.84444 21.3556 6.28889ZM2.26667 14.6667C1.46667 11.4222 1.44444 9.42222 2.22222 7.53333C3.44444 4.6 6.86667 1.46667 11.5111 1.66667C15.0222 1.77778 18.3778 3.93333 19.8667 7.02222C20.4889 8.33333 21.0889 10.4444 19.9333 15.2444C18.5778 21.0222 15.7111 26.4889 11.3778 31.4889C6.8 26.2667 3.75556 20.6 2.26667 14.6667Z" fill="black"/>
<path d="M16.2222 11.6222C16.2222 14.3778 14 16.6 11.2667 16.6C8.53333 16.6 6.28889 14.3778 6.28889 11.6222C6.28889 8.86667 8.51111 6.66667 11.2667 6.66667C12.0444 6.66667 12.7556 6.84444 13.4 7.15555C12.6444 7.48889 12.1111 8.24444 12.1111 9.13333C12.1111 10.3556 13.0889 11.3333 14.3111 11.3333C15.0444 11.3333 15.6889 10.9778 16.0667 10.4444C16.1778 10.8222 16.2222 11.2222 16.2222 11.6222Z" fill="black"/>
</g>
<defs>
<linearGradient id="paint0_linear_33_284" x1="11.1556" y1="3.93333" x2="11.0222" y2="30.2444" gradientUnits="userSpaceOnUse">
<stop stop-color="#FD5758"/>
<stop offset="1" stop-color="#A24974"/>
</linearGradient>
<clipPath id="clip0_33_284">
<rect width="22.2444" height="34" fill="white"/>
</clipPath>
</defs>
</svg>
