<svg width="20" height="18" viewBox="0 0 20 18" fill="none" xmlns="http://www.w3.org/2000/svg">
<path d="M19.2143 6.18127C18.7123 4.99312 17.9846 3.91365 17.0714 3.0027C16.1605 2.08955 15.081 1.36182 13.8929 0.859842C12.6585 0.33752 11.3504 0.0741272 10 0.0741272C8.64955 0.0741272 7.34152 0.33752 6.10714 0.859842C4.91899 1.36182 3.83952 2.08955 2.92857 3.0027C2.01542 3.91365 1.28769 4.99312 0.785714 6.18127C0.263393 7.41565 0 8.72368 0 10.0741C0 13.0362 1.30134 15.8264 3.5692 17.7326L3.60714 17.7639C3.73661 17.871 3.89955 17.9313 4.06696 17.9313H15.9353C16.1027 17.9313 16.2656 17.871 16.3951 17.7639L16.433 17.7326C18.6987 15.8264 20 13.0362 20 10.0741C20 8.72368 19.7344 7.41565 19.2143 6.18127ZM15.567 16.2348H4.43304C3.57053 15.4571 2.88118 14.5068 2.40972 13.4454C1.93827 12.3841 1.69525 11.2355 1.69643 10.0741C1.69643 7.85538 2.56027 5.77056 4.12946 4.20359C5.69866 2.6344 7.78348 1.77056 10 1.77056C12.2188 1.77056 14.3036 2.6344 15.8705 4.20359C17.4397 5.77279 18.3036 7.85761 18.3036 10.0741C18.3036 12.4313 17.3103 14.6612 15.567 16.2348ZM12.4888 6.98261C12.4553 6.94938 12.41 6.93074 12.3627 6.93074C12.3155 6.93074 12.2702 6.94938 12.2366 6.98261L10.3504 8.86877C9.93304 8.75716 9.47098 8.86431 9.14286 9.19243C9.02664 9.30843 8.93443 9.44621 8.87152 9.59789C8.80861 9.74956 8.77623 9.91216 8.77623 10.0764C8.77623 10.2406 8.80861 10.4032 8.87152 10.5548C8.93443 10.7065 9.02664 10.8443 9.14286 10.9603C9.25886 11.0765 9.39664 11.1687 9.54831 11.2316C9.69999 11.2945 9.86258 11.3269 10.0268 11.3269C10.191 11.3269 10.3536 11.2945 10.5053 11.2316C10.6569 11.1687 10.7947 11.0765 10.9107 10.9603C11.0662 10.8053 11.178 10.612 11.2348 10.4C11.2916 10.1879 11.2915 9.96466 11.2344 9.7527L13.1205 7.86654C13.1897 7.79734 13.1897 7.6835 13.1205 7.61431L12.4888 6.98261ZM9.50893 4.71698H10.4911C10.5893 4.71698 10.6696 4.63663 10.6696 4.53841V2.7527C10.6696 2.65448 10.5893 2.57413 10.4911 2.57413H9.50893C9.41071 2.57413 9.33036 2.65448 9.33036 2.7527V4.53841C9.33036 4.63663 9.41071 4.71698 9.50893 4.71698ZM15.3125 9.58306V10.5652C15.3125 10.6634 15.3929 10.7438 15.4911 10.7438H17.2768C17.375 10.7438 17.4554 10.6634 17.4554 10.5652V9.58306C17.4554 9.48484 17.375 9.40449 17.2768 9.40449H15.4911C15.3929 9.40449 15.3125 9.48484 15.3125 9.58306ZM15.596 5.18127L14.9018 4.48707C14.8682 4.45384 14.8229 4.4352 14.7757 4.4352C14.7284 4.4352 14.6831 4.45384 14.6496 4.48707L13.3862 5.75047C13.3529 5.78403 13.3343 5.82935 13.3343 5.87658C13.3343 5.92381 13.3529 5.96914 13.3862 6.0027L14.0804 6.6969C14.1496 6.76609 14.2634 6.76609 14.3326 6.6969L15.596 5.4335C15.6652 5.36431 15.6652 5.25047 15.596 5.18127ZM5.35938 4.48707C5.32581 4.45384 5.28049 4.4352 5.23326 4.4352C5.18603 4.4352 5.1407 4.45384 5.10714 4.48707L4.41295 5.18127C4.37971 5.21483 4.36107 5.26016 4.36107 5.30739C4.36107 5.35462 4.37971 5.39994 4.41295 5.4335L5.67634 6.6969C5.74554 6.76609 5.85938 6.76609 5.92857 6.6969L6.62277 6.0027C6.69196 5.9335 6.69196 5.81966 6.62277 5.75047L5.35938 4.48707ZM4.41964 9.40449H2.63393C2.53571 9.40449 2.45536 9.48484 2.45536 9.58306V10.5652C2.45536 10.6634 2.53571 10.7438 2.63393 10.7438H4.41964C4.51786 10.7438 4.59821 10.6634 4.59821 10.5652V9.58306C4.59821 9.48484 4.51786 9.40449 4.41964 9.40449Z" fill="url(#paint0_linear_70_353)"/>
<defs>
<linearGradient id="paint0_linear_70_353" x1="10" y1="0.0741272" x2="10" y2="17.9313" gradientUnits="userSpaceOnUse">
<stop stop-color="#F656D0"/>
<stop offset="1" stop-color="#6B44BB"/>
</linearGradient>
</defs>
</svg>
